<?xml version="1.0" encoding="utf-8"?>
<!-- Generator: Adobe Illustrator 26.3.1, SVG Export Plug-In . SVG Version: 6.00 Build 0)  -->
<svg version="1.1" id="Layer_2" xmlns="http://www.w3.org/2000/svg" xmlns:xlink="http://www.w3.org/1999/xlink" x="0px" y="0px"
	 viewBox="0 0 454.1 236.1" style="enable-background:new 0 0 454.1 236.1;" xml:space="preserve">
<style type="text/css">
	.st0{fill:#FFFFFF;}
	.st1{fill:#EEAC46;}
	.st2{font-family:'Arial-BoldMT';}
	.st3{font-size:30px;}
</style>
<g id="Layer_1-2_00000018237009621011905680000017047503878936753063_">
	<g>
		<g>
			<path class="st0" d="M258,145.5c0,0-0.1,0.1-0.4,0.2C257.8,145.7,258,145.6,258,145.5L258,145.5z"/>
			<path class="st0" d="M151.9,151.6V126c0-4.6-0.8-8.6-2.8-12.1c-2.1-3.5-4.9-6.3-8.7-8.2c-3.8-1.9-8.1-2.9-13.1-2.9
				c-3.7,0-7.9,0.6-12.7,1.7s-8.4,2.4-11.1,3.8l5.1,14.6c2.3-1.1,4.9-1.9,7.9-2.7c3-0.7,5.7-1.1,8.1-1.1c2.5,0,4.5,0.9,6,2.3
				c1.5,1.4,2.3,2.7,2.5,6.2H124c-7.1,0-12.6,1.3-16.7,4.3s-6.1,7.4-6.1,13.4c0,2.4,0.3,4.5,0.8,6.5l0.1-0.1c0,0-0.2,0.2-2,0.6V79.7
				l-19.7,3.1v32.4H42.9V79.7l-19.7,3.1v80.6h2.5l17.1-2.3v-29.9h37.5v28.4c-8.9,4.2-22,10.3-34.8,18.8
				C79.4,165.5,116.2,156.6,151.9,151.6L151.9,151.6z M119.2,140.4c1.3-1.2,2.9-2,4.9-2h10v7.5c-3.6,3.1-7.1,4.6-10.7,4.6
				c-1.7,0-3.3-0.5-4.3-1.6c-1.1-1.1-1.7-2.4-1.7-3.9C117.4,143.2,117.9,141.6,119.2,140.4L119.2,140.4z"/>
			<polygon class="st0" points="42.9,31 54.5,45.7 61.2,54.3 65,54.3 80.4,32.4 80.4,77.3 100.1,74.1 100.1,0 81,2.9 63.4,28.2 
				41.6,0.2 23.2,2.9 23.2,77.3 42.9,74.2 			"/>
			<path class="st0" d="M107.3,44.4c-4.1,3-6.1,7.5-6.1,13.5s1.8,10.9,5.5,14.4c3.7,3.5,9.1,5.3,16.2,5.3c5.3,0,10.1-2.8,14.5-7.8
				l4.5,6h10V38.6c0-4.6-0.8-8.6-2.8-12.1c-2.1-3.5-4.9-6.3-8.7-8.2c-3.8-2-8.1-2.9-13.1-2.9c-3.7,0-7.9,0.6-12.7,1.6
				c-4.7,1.1-8.4,2.4-11.1,3.8l5.1,14.6c2.3-1,4.9-2,7.9-2.7c3-0.7,5.7-1.1,8.1-1.1c2.5,0,4.5,0.8,6,2.3c1.5,1.4,2.3,2.6,2.5,6.2
				H124C116.9,40,111.3,41.4,107.3,44.4L107.3,44.4z M134.1,50.8v7.7c-3.6,3.1-7.1,4.6-10.7,4.6c-1.7,0-3.3-0.5-4.3-1.6
				s-1.7-2.3-1.7-3.8c0-1.9,0.6-3.7,1.8-4.9c1.3-1.2,2.9-2.1,4.9-2.1L134.1,50.8L134.1,50.8z"/>
			<path class="st0" d="M247.6,30.1c-2.6,4.8-3.9,10.3-3.9,16.6c0,9.7,3.1,17.2,9.3,22.7c6.2,5.4,14.7,8.2,25.6,8.2
				c4.8,0,9.2-0.6,13.2-1.8c4-1.2,7.4-2.8,10.2-4.9l-5.4-13.3c-5.5,3.1-11.1,5-16.7,5c-8.6,0-13.8-4.7-15.6-10h37.8v-6.4
				c0-5.8-1-11-3.1-15.6c-2.1-4.6-5.2-8.3-9.3-11.1c-4.1-2.8-9.2-4.1-15.2-4.1s-11.4,1.3-16,3.8C253.8,21.7,250.2,25.3,247.6,30.1
				L247.6,30.1z M267.3,34.2c1.8-1.8,4.1-3,6.8-3c2.9,0,5.1,1.2,6.8,3c1.7,1.8,2.7,4,3.2,7.6h-20C264.4,38.2,265.4,36,267.3,34.2
				L267.3,34.2z"/>
			<path class="st0" d="M447.2,181.5c-10-8-23.5-14.1-32.4-18.3v-39.8c5.4-3.4,10.1-5.1,13.5-5.1c2.4,0,3.7,0.8,4.9,2.5
				c1.2,1.7,1.2,3.9,1.2,6.8v37.1l19.7-2.9V126c0-7.2-1.5-12.9-4.8-17.1c-3.3-4.2-8.5-6.3-15.9-6.3c-3.7,0-7.7,0.8-11.9,2.2
				s-8.1,3.4-11.6,5.8l-3.3-6.3h-11.6v52c-1.9-0.4-2.3-0.6-3.7-0.8l0.1-29.6c0-4.6-0.7-8.6-2.8-12.1c-2.1-3.5-4.8-6.3-8.7-8.2
				c-3.8-1.9-8.1-2.9-13.1-2.9c-3.7,0-7.9,0.6-12.6,1.7s-8.4,2.4-11.1,3.8l5.1,14.6c2.3-1.1,4.9-1.9,7.9-2.7s5.7-1.1,8-1.1
				c2.5,0,4.5,0.9,6,2.3c1.5,1.4,2.3,2.7,2.5,6.2h-9.3c-7.1,0-12.6,1.3-16.7,4.3c-4.1,3-6.1,7.4-6.1,13.4c0,2.6,0.5,4.8,1.2,6.9
				C378.6,158,413.7,167.7,447.2,181.5L447.2,181.5z M373.6,145.9c-3.6,3.1-7.1,4.6-10.6,4.6c-1.7,0-3.2-0.5-4.3-1.6
				c-1.1-1.1-1.7-2.3-1.7-3.8c0-1.9,0.6-3.6,1.9-4.8s2.9-2,4.9-2h9.8V145.9z"/>
			<path class="st0" d="M358.5,73.1c2.9,2.4,6.7,3.5,11.2,3.5c1.5,0,3.1-0.3,4.8-0.8s3-1.2,3.9-1.8l-3.3-8.1c-1.5,0.8-3,1.2-4.6,1.2
				s-2.3-0.5-3.1-1.6c-0.8-1-0.9-2.4-0.9-4.1V49h9.4l-2.1-8.9h-7.3V29.7L354,31.5V40h-5.4V49h5.4v14.1
				C354,67.4,355.6,70.8,358.5,73.1L358.5,73.1z"/>
			<path class="st0" d="M380.8,75.8h10.7V51.2c3.6-2.1,6.5-3.1,8.5-3.1c1.5,0,2.3,0.5,3.1,1.5c0.8,1,0.9,2.4,0.9,4.1v22.1h12.5v-23
				c0-9.5-4.4-14.2-12.8-14.2c-1.9,0-4,0.3-6.1,1s-4.4,1.5-6.1,2.5V23.6l-10.7,1.8L380.8,75.8L380.8,75.8z"/>
			<path class="st0" d="M423.4,71.4c3.8,3.3,8.9,4.9,15.5,4.9c2.9,0,5.6-0.4,8-1.1s4.5-1.7,6.2-2.9l-3.2-8
				c-3.3,1.9-6.7,3.1-10.1,3.1c-5.2,0-8.4-2.4-9.4-5.9h22.1v-4.1c0-3.5-0.2-6.6-1.5-9.5c-1.2-2.8-2.9-5-5.4-6.7
				c-2.5-1.7-5.5-2.5-9.1-2.5s-6.8,0.8-9.6,2.3c-2.8,1.5-5,3.8-6.6,6.6c-1.6,2.9-2.3,6.2-2.3,10.1C417.7,63.6,419.6,68.1,423.4,71.4
				L423.4,71.4z M432,49.9c1.1-1.1,2.5-1.7,4.1-1.7c1.7,0,3.1,0.6,4.1,1.7c1,1.1,1.7,2.6,2,4.4H430C430.2,52.6,430.9,51,432,49.9
				L432,49.9z"/>
			<path class="st0" d="M216.4,72.2c4.8,3.9,10.9,5.8,18.4,5.8c2.2,0,4.7-0.4,7.2-1.2c0.1,0,0.3-0.1,0.4-0.1c0.1,0,0.2-0.1,0.3-0.1
				c0.1,0,0.2-0.1,0.3-0.1c0.4-0.1,0.8-0.3,1.2-0.4c1.7-0.6,3.1-1.3,4.1-2c0.8-0.5,1.6-1.1,2.5-1.7c-0.1-0.1-0.2-0.2-0.3-0.3
				c-3.6-3.2-6.3-6.9-8.1-11.3c-2.1,0.9-4.3,1.4-6.4,1.4c-2.4,0-4.1-0.8-5.4-2.6c-1.4-1.7-1.8-3.9-1.8-6.7V32.9h13.9l-1.8-14.3
				h-12.1V0.5l-19.7,2.9v15.1h-8.9v14.3h8.9v22.8C209.2,62.8,211.6,68.3,216.4,72.2z"/>
			<path class="st0" d="M180.3,61.8c-1.5,0.7-3.2,1-5.2,1c-2.1,0-4.7-0.4-7.7-1.2c-3.1-0.8-5.8-1.8-8.4-3l-5.6,12.4
				c2.8,2.2,6.5,3.8,11.1,4.9c4.6,1.1,8.6,1.6,11.8,1.6c8.1,0,14.2-1.7,18.4-5c4.2-3.3,6.3-8.1,6.3-14.2c0-8.5-6.8-15-20.4-19.8
				c-5.1-1.8-7.7-3.3-7.7-4.6c0-1.1,0.6-2.1,1.8-2.8c1.2-0.7,2.8-1.1,4.6-1.1c4.2,0,9.1,1.2,14.5,3.5l5.5-12.6
				c-2.7-1.9-6-3.3-9.8-4.3c-4.1-1-7.7-1.5-10.8-1.5c-7.6,0-13.7,1.7-18.1,5.1c-4.4,3.4-6.6,8-6.6,13.8c0,4.6,1.9,8.5,5.7,11.5
				c3.8,3,8.7,5.5,14.6,7.6c2.5,0.8,4.5,1.7,5.9,2.7s2.1,2,2.1,3C182.6,60.1,181.9,61.1,180.3,61.8L180.3,61.8z"/>
			<path class="st0" d="M323.6,40.9c3.6-2.5,6.6-4.6,10.3-6.2c3.7-1.6,7.1-2.4,10-2.4l-3.7-15.2c-3,0-6.3,0.9-10.1,2.6
				s-7,3.5-9.9,5.7l-5.3-8.6h-9.2v59h17.9L323.6,40.9L323.6,40.9z"/>
			<path class="st0" d="M280.7,189.3l17.9-2.9v-24c3.6,1.3,6.7,1.9,9.6,1.9c9.5,0,17.1-2.8,22.6-8.3c1.5-1.5,2.8-3.1,3.9-4.9
				c2.9-4.9,4.5-10.9,4.5-18.1c0-9.8-2.7-17.4-8-22.7c-5.4-5.3-12.6-8-21.8-8c-5.6,0-10.9,1.9-16,5.6l-3.3-3.6h-9.2L280.7,189.3
				L280.7,189.3z M298.5,146.7v-26.2c3.6-1.9,5.7-2.8,8.2-2.8c3.9,0,7.1,1.4,9.3,4.1s3.4,6.6,3.4,11.4s-1,8.6-3.2,11.6
				c-1.3,1.7-2.8,2.9-4.5,3.6c-1.2,0.5-2.6,0.8-4.1,0.8c-2.2,0-4.9-0.6-7.1-1.7C299.9,147.3,299.9,147.3,298.5,146.7L298.5,146.7z"
				/>
			<path class="st0" d="M238.4,142.4c-1.1-2.4-1.6-5.2-1.6-8.6c0-4.8,1.1-8.6,3.3-11.5c2.2-2.9,4.8-4.4,8.4-4.4c3.2,0,7.2,1,9,3
				v24.6c0,0,0.1,0.1-0.1,0.2c-0.8,0.5-3,1.5-6.9,1.3c1.4,0.6,3.3,1.5,5.3,2.7c0,0,0.1,0,0.1,0c0.3,0.2,0.6,0.4,0.9,0.6
				c1.5,1,3,2.1,4.3,3.2c2.3,2,4.6,4.4,6.7,7.4c0.2,0.3,0.4,0.5,0.5,0.8l9-1.4V90.1l0,0v-8.8c-7.1-0.2-13.7-1.6-19.1-4.2
				c0,0.4,0,1.1,0,1.8c0,7,0.1,26.2,0.1,26.2c-3.4-1.6-6.8-2.4-10.1-2.4c-9.5,0-17,2.8-22.6,8.4c-2.8,2.8-4.8,6.1-6.2,9.9
				c-1.3,3.8-2,8.1-2,12.9c0,2.2,0.2,4.4,0.4,6.4C225,140,232,140.8,238.4,142.4L238.4,142.4z"/>
			<path class="st0" d="M214.5,126c0-7.2-1.6-12.9-4.9-17.1c-3.3-4.2-8.6-6.3-15.9-6.3c-3.7,0-7.7,0.8-11.9,2.2
				c-4.2,1.5-8.1,3.4-11.6,5.8l-3.3-6.3h-11.4v46.9c5.4-0.8,12.5-1.5,17.9-2.1v-25.8c7.1-3.4,10.9-5.1,14.3-5.1
				c2.4,0,4.2,0.8,5.4,2.5c1.2,1.7,1.7,3.9,1.7,6.8v12.7c-2.9,1.9-7,4.6-11.1,8.1c-2.2,1.9-4.4,4.1-6.3,6.6
				c5.5-4.7,13-8.8,21.2-11.4c5-1.6,10.6-2.6,15.9-3.1L214.5,126L214.5,126z"/>
			<path class="st0" d="M208.4,176.5c1.9,1,7.4,7.3,28.2,4.1c21.3-3.3,28.5-13.9,28.5-13.9C249.8,173.7,222.5,176.7,208.4,176.5
				L208.4,176.5z"/>
		</g>
		<g id="Layer_1-2">
			<polygon class="st0" points="49.4,215.8 26.9,215.8 26.9,199.7 23,199.7 23,235.8 26.9,235.8 26.9,219.2 49.4,219.2 49.4,235.8 
				53.2,235.8 53.2,199.7 49.4,199.7 			"/>
			<path class="st0" d="M92,235.8h4l-16.5-36.1h-3.8l-16.5,36.1h4l4.3-9.6h20.2L92,235.8L92,235.8z M68.9,223l8.7-19.4l8.7,19.4
				C86.2,223,68.9,223,68.9,223z"/>
			<polygon class="st0" points="128.4,199.7 128.4,200.2 128.4,202.6 128.4,213.5 128.4,229 116.1,213.5 105.1,199.7 102,199.7 
				102,213.5 102,235.8 105.8,235.8 105.8,213.5 105.8,206.5 111.3,213.5 129,235.8 132.1,235.8 132.1,213.5 132.1,204.8 
				132.1,202.4 132.1,199.7 			"/>
			<path class="st0" d="M177.5,213.5c-0.4-2.1-1.2-4-2.4-5.8c-0.6-0.9-1.4-1.9-2.2-2.7c-3.9-3.6-9-5.6-14.4-5.4h-14.7v36.1h14.7
				c11.6,0,19.4-7.4,19.4-18.1C177.9,216.3,177.8,214.9,177.5,213.5L177.5,213.5z M158.4,232.5h-10.7V203h10.7
				c3.8-0.1,7.5,1,10.6,3.3c0.9,0.7,1.8,1.6,2.5,2.6c1,1.4,1.8,3,2.2,4.6c0.4,1.4,0.6,2.8,0.6,4.3
				C174.2,226.4,168,232.5,158.4,232.5L158.4,232.5z"/>
			<path class="st0" d="M200,199.7h-13.5v36.1h3.8v-11.4h9.7c8.6,0,14-4.1,14.7-10.9c0-0.5,0.1-0.9,0.1-1.4
				C214.8,204.4,209.2,199.7,200,199.7L200,199.7z M199.9,221h-9.6v-18h9.6c7.2,0,11,3.3,11,9.1c0,0.5,0,0.9-0.1,1.4
				C210.3,218.3,206.5,221.1,199.9,221L199.9,221L199.9,221z"/>
			<path class="st0" d="M235.7,199.7H232l-3.3,7.3l-3,6.5l-10.2,22.3h4l4.3-9.6h20.1l4.3,9.6h4L235.7,199.7L235.7,199.7z
				 M225.1,223.1l8.7-19.4l8.7,19.4H225.1z"/>
			<polygon class="st0" points="284.6,199.7 284.6,229 261.4,199.7 258.2,199.7 258.2,235.8 262,235.8 262,206.5 285.2,235.8 
				288.4,235.8 288.4,199.7 			"/>
			<path class="st1" d="M323.1,199.7h-14.7v36.1h14.7c11.6,0,19.4-7.4,19.4-18.1S334.6,199.7,323.1,199.7z M322.9,232.5h-10.7V203
				h10.7c9.6,0,15.8,6.1,15.8,14.8S332.5,232.5,322.9,232.5z"/>
			<path class="st1" d="M366.8,199.4c-10.9,0-19,7.8-19,18.4s8.1,18.4,19,18.4s18.9-7.8,18.9-18.4S377.6,199.4,366.8,199.4z
				 M366.8,232.7c-8.3-0.1-14.9-6.9-14.8-15.1c0.1-8.3,6.9-14.9,15.1-14.8c8.2,0.1,14.8,6.8,14.8,15c0.2,8.1-6.3,14.8-14.4,15
				L366.8,232.7L366.8,232.7z"/>
			<path class="st1" d="M390.9,203h13.2v21.9c0,5.3-2.3,7.9-6.7,7.9c-3.2,0-6.1-1.7-7.8-4.4l-2.3,2.6c2.2,3.3,6,5.2,10,5.2
				c6.9,0,10.5-3.8,10.5-11.4v-25.1h-17L390.9,203L390.9,203L390.9,203z"/>
			<path class="st1" d="M435.1,199.4c-10.9,0-19,7.8-19,18.4s8,18.4,19,18.4s18.9-7.8,18.9-18.4S446,199.4,435.1,199.4z
				 M435.1,232.7c-8.3-0.1-14.9-6.9-14.8-15.1c0.1-8.3,6.9-14.9,15.1-14.8c8.2,0.1,14.8,6.8,14.8,15c0.2,8.1-6.3,14.8-14.4,15
				L435.1,232.7L435.1,232.7z"/>
		</g>
		<path class="st1" d="M4.3,166.9l78.1-11.7c2.8-0.4,5.4,1.5,5.8,4.3l4,26.7c0.4,2.8-1.5,5.4-4.3,5.8L9.8,203.6
			c-2.8,0.4-5.4-1.5-5.8-4.3l-4-26.7C-0.4,169.9,1.6,167.3,4.3,166.9z"/>
		<text transform="matrix(0.9889 -0.1485 0.1485 0.9889 15.49 194.68)" class="st0 st2 st3">A</text>
		<text transform="matrix(0.9889 -0.1485 0.1485 0.9889 35.3968 191.6907)" class="st0 st2 st3">v</text>
		<text transform="matrix(0.9889 -0.1485 0.1485 0.9889 51.0018 189.3474)" class="st0 st2 st3">ec</text>
	</g>
</g>
</svg>
